<svg version="1.1" xmlns="http://www.w3.org/2000/svg" viewBox="0 0 153600 115200" width="133" height="100">
  <g xmlns="http://www.w3.org/2000/svg">
    <path id="path22" style="fill:#000000;fill-opacity:1;stroke-width:240" d="m 55812,100.13086 -38172,0.13086 1080,1025.53708 c 594,564.046 1512,1336.6838 2040,1716.9727 1087.991,783.6192 7315.169,7104.6571 7318.094,7428.3985 2.945,326.342 -7542.341,-6.829 -9809.336,-433.1427 C 14371.701,9105.1773 5454.6792,5770.7962 1879.3379,3709.459 954.51091,3176.257 153.32259,2740 98.917969,2740 44.513351,2740 4.9727097,9139 11.050781,16960 L 22.101562,31180 3752.8672,33940 c 3922.525,2901.862 6975.4588,5362.771 11695.2348,9427.301 2837.24,2443.344 3751.898,3379.394 3751.898,3839.64 0,240.938 -9775.0517,107.185 -16260,-222.486 L 0,46834.996 v 5984.678 5984.68 l 1020,519.662 c 561,285.816 1560,830.542 2220,1210.505 660,379.964 2339.2317,1348.222 3731.627,2151.684 2121.9379,1224.435 5753.41,3043.897 11212.441,5617.725 1312.695,618.909 1558.37,1091.781 1315.455,2531.968 -151.754,899.717 -294.069,1149.321 -666.25,1168.569 -260.3,13.456 -4037.273,41.967 -8393.273,63.375 l -7920,38.91 1680,913.553 c 924,502.452 2976,1596.522 4560,2431.269 1584,834.744 2988,1598.727 3120,1697.737 132,99.009 1482,688.304 3000,1309.544 1518,621.24 2925.952,1276.521 3128.783,1456.182 202.831,179.66 759.937,490.092 1238.012,689.844 670.882,280.313 956.643,597.296 1252.318,1389.152 103.453,277.058 178.245,462.352 226.625,558.582 83.684,603.079 192.157,1362.466 192.157,1547.385 0,195.829 120.425,882.017 232.263,1373.15 19.35,133.366 54.444,304.887 104.406,501.723 138.227,544.569 288.268,1577.627 348.7,1577.627 15.033,0 25.93,-17.017 33.154,-48.164 48.728,288.147 186.365,731.121 268.285,828.871 8.756,74.129 23.468,172.582 43.289,294.674 121.243,746.796 90.363,796.262 -408.416,654.223 -296.767,-84.514 -858.94,-248.493 -1259.576,-272.399 -700.393,-41.792 -1298.352,-77.597 -1830.566,-109.506 2.456,11.621 0.378,12.435 -13.561,12.424 -0.187,1.693 -3.397,0.04 -5.16,0 h -2.848 -85.746 -36.892 -0.11 -38.722 -0.02 c -26.175,13.793 -54.299,24.021 -83.357,29.664 -4.604,0.09 -9.213,0.07 -13.823,0.04 -6.846,4.004 -19.878,10.721 -19.91,10.736 -0.04,0.02 -0.09,0.04 -0.137,0.06 3.036,0.278 6.082,0.555 9.118,0.834 -197.713,84.944 -516.097,226.274 -974.784,426.963 -525.843,-1.035 -3240.805,2655.588 -3286.604,3157.39 -6.184,67.762 -35.929,228.73 44.585,67.599 135.488,-271.149 848.7,-717.52 1225.258,-1156.878 551.99,-644.047 1343.375,-1358.334 1738.451,-1619.103 646.32,-426.602 1219.392,-658.02 1448.965,-804.151 1039.654,96.683 1918.94,142.89 2140.412,229.131 990.968,385.884 2847.114,1788.354 3592.814,2714.674 154.108,191.432 484.991,631.333 726.825,917.318 26.398,75.746 93.288,194.756 196.847,343.342 226.07,324.372 739.994,1156.78 1142.053,1849.779 253.709,437.299 1708.515,3512.386 2439.154,4923.219 189.52,562.6 662.956,1722.51 851.979,2414.85 65.784,240.94 239.21,899.73 309.002,829.94 153.014,-153.01 -416.682,-2034.27 -770.725,-2681.74 -0.04,-0.14 -0.08,-0.28 -0.125,-0.42 -6.374,-151.02 2.645,-350.27 69.83,-531.88 291.274,-787.387 3534.791,-1150.474 8793.203,-984.338 2351.025,74.277 4544.594,204.423 4874.594,289.215 472.003,121.282 517.4,100.818 212.799,-95.914 -530.747,-342.796 -4303.247,-672.125 -7036.182,-670.746 -536.37,0.271 -1032.698,13.288 -1456.617,41.434 -2534.148,168.257 -5665.476,551.852 -5827.514,713.89 -24.861,24.86 24.346,238.814 93.573,490.393 -102.634,-228.055 -371.469,-790.963 -723.268,-1504.457 24.057,4.336 41.945,-7.653 52.043,-37.947 48.195,-144.585 -224.495,-541.518 -497.949,-968.487 -258.32,-403.343 -326.269,-667.696 -377.475,-666.574 -5.766,0.127 -10.192,2.738 -13.287,7.783 -827.523,-1615.34 -1746.207,-3308.493 -2150.775,-3739.613 -237.559,-417.154 -834.39,-1269.273 -1269.17,-1730.318 -575.395,-610.155 -1240.387,-1615.376 -1477.758,-2233.825 -153.192,-399.129 -250.239,-638.957 -303.002,-732 -40.105,-235.472 -196.249,-717.279 -305.424,-1032.66 -39.471,-549.864 -226.054,-1550.096 -382.535,-1890.076 -111.053,-772.599 -324.039,-2007.289 -469.943,-2790.264 -6.019,-51.527 -16.17,-118.072 -30.299,-199.457 -1165.838,-6715.483 -1089.051,-12426.14 200.605,-14918.816 1296.439,-2505.79 4474.196,-2845.529 6538.547,-699.051 1906.49,1982.34 2741.134,4871.029 4685.912,16217.867 479.414,2797.143 1520.225,6853.46 1802.983,7460.332 39.523,109.134 84.279,220.842 133.261,328.346 267.662,587.459 775.151,623.3 1053.52,268.947 4.14,0.01 10.207,-3.894 18.383,-12.07 139.466,-139.464 1056.351,-2145.238 998.634,-2318.383 -8.519,-25.564 54.792,-313.082 126.997,-630.551 l -39.174,303.379 247.808,-840 c 856.085,-2901.883 1693.179,-5437.714 2416.383,-7320 456.446,-1188 1119.704,-3078 1473.908,-4200 1325.75,-4199.563 3292.541,-7422.826 5033.366,-8248.904 2571.641,-1220.323 5789.969,252.937 6872.396,3145.975 951.621,2543.438 650.153,6047.984 -1099.607,12782.929 l -306.76,782.485 -432.151,1344.567 -232.809,787.949 137.544,160.304 698.969,-2142.386 399.486,-900.303 c 254.409,-573.35 557.067,-553.048 1647.375,-438.868 1433.143,150.082 7624.952,-649.292 9217.59,-1190.007 1417.73,-481.332 2593.499,-1245.62 3689.547,-2398.325 896.825,-943.188 2737.499,-3592.275 3235.603,-4656.656 656.976,-1403.863 945.674,-2381.668 1044.471,-2569.994 125,-238.275 264.841,-514.446 588.539,-863.723 1403.518,-1514.418 3268.01,-135.236 3599.16,2662.338 90.014,760.438 364.658,2030.619 610.322,2822.619 245.662,792 610.337,1980 810.389,2640 582.065,1920.326 1324.642,3432.415 2146.779,4371.43 995.647,1137.197 3230.415,2574.105 4799.965,3086.27 1609.401,525.17 1720.499,597.648 1330.467,868.017 -238.454,165.296 -197.125,193.46 154.379,105.203 723.113,-181.57 2108.822,-224.25 5160,-158.941 2271.694,48.626 2643.23,105.223 2100,319.879 -363,143.441 -660,347.954 -660,454.474 0,269.371 421.878,241.657 995.605,-65.394 266.228,-142.481 1042.128,-295.881 1724.223,-340.903 682.094,-45.02 1321.172,-90.459 1420.172,-100.947 99,-10.498 180,-127.088 180,-259.088 0,-132 -459,-246.339 -1020,-254.074 l -1020,-14.086 1612.66,-558.816 c 2003.491,-694.243 3557.09,-1593.91 4955.109,-2869.434 695.167,-634.255 1007.177,-813.111 878.497,-503.59 -109.76,264 -380.15,986.138 -600.87,1604.75 -220.719,618.615 -507.542,1266.615 -637.377,1440 -129.838,173.388 -594.501,1017.25 -1032.582,1875.25 -279.15,1683.848 -1010.488,2451.741 -1592.249,3186.757 -187.68,734.952 -2661.754,3490.497 -3564.053,4040.718 -406.524,247.899 -618.7,451.139 -471.5,451.619 621.064,2.084 2631.582,-1888.4 3692.365,-3471.914 976.092,-1457.093 1433.959,-1863.361 1878.557,-1666.893 709.272,313.428 2054.789,374.48 3041.439,138.01 951.14,-227.959 946.26,-230.317 -528.71,-254.197 -2126.01,-34.428 -3204.881,-622.295 -2488.79,-1356.1 290.016,-297.192 2300.99,-4370.904 2541.3,-5148 102.04,-330 1318.43,-2737.088 2703.09,-5349.086 1812.67,-3419.397 2759.04,-4948.135 3380.02,-5460 474.35,-391.002 983.11,-710.914 1130.58,-710.914 147.46,0 432.89,-189 634.28,-420 462.94,-530.995 1417.81,-3419.418 1469.29,-4444.48 36.28,-722.589 114.65,-790.166 1148.16,-990 905.16,-175.017 1277.59,-130.867 2024.51,240 1634.2,811.433 1908.49,1445.916 1890.76,4373.592 -17.09,2821.687 -651.08,5461.251 -2008.34,8361.648 -2079.27,4443.312 -5870.37,8481.371 -9673.98,10304.17 -1116.23,534.932 -1165.04,586.745 -422.17,448.029 462,-86.268 1218,-396.682 1680,-689.806 462,-293.126 1434,-758.661 2160,-1034.522 1327.02,-504.233 3953.07,-1513.018 9183.96,-3527.951 1553.17,-598.284 3389.17,-1247.949 4080,-1443.705 2583.52,-732.076 6379.98,-1852.479 8936.04,-2637.19 7261.9,-2229.407 9204.22,-2846.729 13080,-4157.162 2310,-781.03 5793,-1945.179 7740,-2586.99 l 3540,-1166.918 v -1909.09 -1909.066 l -7740,178.16 c -16756.73,385.706 -16476.83,390.42 -16068.28,-270.631 229.64,-371.559 2673.01,-1729.589 4608.28,-2561.295 858,-368.736 1776,-771.523 2040,-895.09 423.44,-198.187 11190.54,-3710.951 15540,-5069.918 l 1620,-506.162 v -8680.209 -8680.209 l -3660,-511.367 c -5117.16,-714.962 -5549.52,-757.944 -10213.09,-1015.392 -4349.29,-240.096 -5449.68,-473.754 -4361.68,-926.166 1061.68,-441.473 5339.99,-1686.265 7554.77,-2198.094 2168.97,-501.24 8494.29,-2012.263 9840,-2350.625 l 720,-181.031 65.82,-3717.204 65.82,-3717.203 -1745.82,-688.298 c -3891.72,-1534.334 -5257.03,-1984.166 -11390.33,-3752.786 -2246.96,-647.941 -10608.2,-1875.536 -13996.68,-2054.988 -1842.44,-97.574 -4095.43,-46.125 -5835.29,133.254 l -2834.09,292.195 -839.19,-798.759 c -461.55,-439.32 -1423.35,-1951.338 -2137.32,-3360.036 -713.98,-1408.698 -1409.99,-2630.392 -1546.7,-2714.88 -136.7,-84.488 -702.15,-821.921 -1256.55,-1638.735 -1061.17,-1563.462 -4934.31,-6161.9469 -5196.41,-6169.5741 -84.29,-2.453 -1175.82,-869.4835 -2425.61,-1926.7344 C 102138.23,4169.0059 98807.861,2201.2363 95880,1050.1914 95088,738.82829 94337.4,397.65804 94212,292.03711 94086.6,186.41616 76806.6,100.05912 55812,100.13086 Z M 73546.189,19095.385 c 6.234,0.148 10.701,1.503 13.313,4.115 47.76,47.761 -176.73,571.413 -498.865,1163.67 -1570.33,2887.094 -3110.15,6237.999 -3362.258,7316.83 -154.233,660 -616.192,2149.695 -1026.578,3310.434 -961.896,2720.64 -1352.191,4434.863 -1845.463,8105.509 -430.651,3204.67 -633.797,9104.057 -313.5,9104.057 107.16,0 375.885,-351 597.17,-780 1532.575,-2971.188 6235.474,-8052.502 10162.303,-10980 442.649,-330 1246.461,-1015.549 1786.251,-1523.445 3368.377,-3169.341 12037.259,-8710.839 13101.438,-8374.961 643.793,203.193 959.953,848.498 962.377,1964.277 3,1382.225 -970.179,6075.435 -1308.529,6310.455 -139.615,96.979 -699.41,178.08 -1243.985,180 -2538.554,9.422 -6072.336,2529.552 -8418.48,6003.674 -2188.514,3240.708 -4519.667,9066.301 -4346.449,10861.857 70.632,732.177 127.211,669.183 957.824,-1066.435 1304.614,-2726.064 2321.483,-4195.283 4245.441,-6133.998 1686.314,-1699.25 2841.174,-2472.13 4171.801,-2791.94 925.325,-222.398 1860,57.461 1860,556.92 0,673.118 -2372.032,5106.895 -3185.121,5953.596 -411.972,429 -662.164,780 -555.986,780 311.438,0 2488.893,-993.06 4867.734,-2220 1215.653,-627 2329.45,-1140 2475.103,-1140 483.884,0 1385.349,2479.704 1548.004,4258.166 153.147,1674.512 135.198,1760.189 -490.144,2339.736 -357.009,330.867 -1222.708,982.312 -1923.778,1447.653 -1142.887,758.606 -2157.87,1708.79 -1272.894,1191.634 710.46,-415.176 3942.876,-2590.493 4057.082,-2730.291 276.562,-338.537 2619.756,-2186.89 2772.367,-2186.89 91.438,0 -454.217,706.72 -1212.566,1570.492 -758.347,863.772 -1303.441,1645.866 -1211.317,1737.99 154.118,154.119 1180.772,-852.181 2831.516,-2775.39 645.946,-752.563 896.052,-1427.308 420,-1133.092 -921.425,569.472 893.933,-1906.092 2375.93,-3240 565.09,-508.627 2619.31,-2789.346 3401.04,-3776.024 128.99,-162.814 461.33,-680.424 738.53,-1150.248 277.2,-469.824 555.32,-802.908 618.04,-740.191 133.32,133.32 -2284.04,5374.049 -2726.16,5910.201 -164.97,200.057 -649.59,1118.057 -1076.94,2040 -712.45,1537.023 -1623.25,2868.964 -3030.44,4431.676 -297,329.825 -540,681.785 -540,782.133 0,100.349 -104.639,182.453 -232.533,182.453 -127.896,0 196.104,-611.904 720,-1359.787 1059.296,-1512.194 1129.266,-1794.763 561.195,-2266.219 -337.363,-279.987 -444.938,-249.378 -780,221.939 -213.763,300.693 -803.753,1091.209 -1311.084,1756.698 -568.68,745.96 -877.975,1379.928 -806.527,1653.144 63.741,243.744 -30.359,651.971 -209.106,907.172 -567.708,810.509 -45.59,805.066 837.159,-8.736 922.239,-850.202 512.193,-235.513 -795.272,1192.185 -685.068,748.053 -783.24,1381.29 -112.404,725.014 180.715,-176.791 1192.572,-628.081 2248.572,-1002.867 3011.52,-1068.821 6832.28,-2520.317 8310.01,-3156.946 2529.48,-1089.741 2618.44,-783.361 702.15,2418.395 -632.03,1056 -1394.83,2406 -1695.11,3000 -300.29,594 -908.46,1523.125 -1351.51,2064.719 -949.31,1160.469 -1009.42,1535.281 -246.22,1535.281 549.4,0 1295.78,-349.686 4074.93,-1909.141 766.84,-430.294 1436.8,-739.806 1488.8,-687.808 155.35,155.352 -1008.61,3181.121 -1919.66,4990.224 -467.19,927.699 -991.76,1686.725 -1165.72,1686.725 -173.97,0 -650.73,-459 -1059.47,-1020 -1826.76,-2507.222 -4294.65,-4495.474 -7236.411,-5829.994 -737.984,-334.785 -1517.999,-705.424 -1733.371,-823.639 -836.088,-458.928 -3578.884,-800.636 -6448.418,-803.396 -5761.133,-5.52 -9618.487,1419.428 -13349.266,4931.363 -1116.974,1051.454 -1288.306,1134.708 -1875.625,911.412 C 74179.612,62850.585 73269.305,62740 72512.201,62740 H 71135.646 L 70636.74,61720 C 69398.045,59187.527 66634.887,56313.335 63811.547,54620.543 61356.351,53148.482 55787.424,51990.129 52680,52305.15 c -1975.373,200.259 -4198.879,571.634 -4920,821.75 -1236.034,428.717 -1560,522.066 -1560,449.526 0,-41.007 -340.673,168.021 -757.049,464.508 -416.376,296.486 -814.201,539.066 -884.053,539.066 -69.854,0 -677.544,342.234 -1350.427,760.521 -726.855,451.838 -1306.896,671.016 -1429.078,540 -431.136,-462.31 -1479.934,-4009.605 -1701.002,-5753.222 -126.982,-1001.539 -275.873,-1894.402 -330.862,-1984.141 -152.932,-249.566 -395.774,-2771.404 -253.14,-2628.769 68.798,68.798 417.704,671.747 775.349,1339.888 357.643,668.138 1379.262,2141.476 2270.262,3274.084 891,1132.608 1620,2154.013 1620,2269.787 0,224.549 612.575,529.278 762.527,379.323 49.2,-49.2 -48.925,-1526.761 -218.058,-3283.465 -515.093,-5350.015 -227.582,-7563.511 1911.205,-14714.006 647.105,-2163.427 1833.637,-4840.17 3284.56,-7409.756 777.619,-1377.166 1673.584,-2166.66 972.768,-857.172 -231.536,432.624 -1169.729,3561.165 -1539.135,5132.453 -91.226,388.036 -318.451,2278.036 -504.943,4200 -530.784,5470.168 -422.034,8894.475 282.474,8894.475 215.866,0 336.013,-308.765 350.245,-900 l 21.648,-900 232.197,806.939 c 217.865,757.133 253.093,779.352 570.723,360 196.927,-259.994 341.716,-321.455 346.156,-146.939 18.53,728.34 654.75,182.925 1166.754,-1000.225 307.517,-710.618 813.829,-1531.314 1125.135,-1823.773 l 566.014,-531.742 339.955,807.871 c 186.977,444.327 588.744,1401.869 892.822,2127.869 304.075,726 697.783,1478.143 874.908,1671.43 277.5,302.82 324.307,269.623 338.395,-240 8.99,-325.287 467.99,-1887.43 1020,-3471.43 l 1003.65,-2880 860.902,23.906 c 1118.203,31.054 2184.996,833.984 3260.157,2453.782 949.32,1430.209 2351.895,4733.333 2871.423,6762.312 498.883,1948.363 605.684,2145.823 787.565,1456.133 270.248,-1024.755 -494.352,-8418.547 -1201.109,-11615.074 -485.159,-2194.241 -1062.355,-3572.128 -2046.35,-4885.045 -314.923,-420.192 -572.588,-823.292 -572.588,-895.772 0,-264.917 2014.364,-3413.167 3233.766,-5054.056 1714.747,-2307.451 5232.016,-5833.456 6922.566,-6939.758 725.982,-475.087 1362.105,-833.598 1469.857,-831.043 z m -20965.341,5843.771 c 89.376,0.03 119.605,220.313 65.849,539.66 -61.212,363.65 -141.278,2193.254 -177.926,4065.782 l -66.63,3404.595 -972.774,1275.405 C 50894.342,34926.07 50279.088,35851 50062.133,36280 c -419.057,828.641 -516.527,905.042 -724.76,568.111 -231.116,-373.953 353.986,-4163.773 817.412,-5294.547 246.497,-601.459 518.537,-1515.265 604.533,-2030.677 85.997,-515.412 472.331,-1605.872 858.52,-2423.242 386.191,-817.371 702.162,-1604.296 702.162,-1748.723 0,-144.425 98.548,-323.5 218.994,-397.94 15.11,-9.339 29.086,-13.83 41.854,-13.826 z m 52926.122,12940.375 c 99.65,0 68.12,103.411 -9.76,310.235 -332.4,882.747 -2133.57,3689.512 -3004.71,4682.238 -496.15,565.399 -1071.27,1351.996 -1278.05,1747.996 -206.77,396 -870.61,1201.487 -1475.2,1789.971 L 98640,47479.941 v -2652.773 c 0,-2879.935 146.071,-3236.652 1459.57,-3564.338 340.76,-85.013 880.76,-393.497 1200,-685.518 319.24,-292.019 958.43,-792.677 1420.43,-1112.566 462,-319.891 894,-640.818 960,-713.184 66,-72.36 538.32,-325.168 1049.6,-561.796 446.88,-206.824 677.72,-310.235 777.37,-310.235 z M 35761.809,52702.41 c 5.398,-0.02 10.795,-0.01 16.191,0.01 302.562,1.205 600.423,60.058 886.002,181.404 1009.68,429.029 1525.754,956.713 2679.727,2740.026 830.887,1284.033 1009.631,1730.561 816.582,2040 -380.083,609.24 -1972.824,1051.923 -3211.915,892.714 -1765.181,-226.805 -2012.424,102.927 -2110.57,2814.711 l -82.176,2270.469 852.395,650.154 c 468.816,357.583 1255.037,1178.136 1747.16,1823.45 l 894.772,1173.3 39.066,3425.676 c 29.739,2607.624 134.387,3640.596 438.232,4325.676 486.444,1096.788 694.855,1149.478 590.815,149.371 -58.819,-565.389 55.17,-839.136 461.91,-1109.275 666.533,-442.68 678.859,-183.835 60,1259.904 -264,615.888 -480,1339.663 -480,1608.391 0,519.322 -978.293,3589.179 -1208.297,3791.609 -74.99,66 -328.735,633 -563.875,1260 -235.14,627 -515.406,1140 -622.816,1140 -175.605,0 -806.004,-675.532 -1971.033,-2112.16 -804.039,-991.478 -2836.693,-5487.723 -3330.844,-7367.84 -815.203,-3101.659 -976.219,-4554.216 -1010.949,-9120 -35.376,-4650.782 167.172,-5902.934 1409.136,-8711.232 852.822,-1928.383 2323.871,-3122.498 3700.487,-3126.358 z m 25100.802,7365.002 c 33.963,-0.122 70.207,52.359 110.532,152.588 106.217,264 200.724,931.286 209.988,1482.857 9.279,551.573 177.904,1163.894 374.726,1360.713 269.652,269.652 284.441,384.091 60,464.287 -163.827,58.536 -233.439,176.631 -154.707,262.436 78.732,85.805 549.406,-13.738 1045.942,-221.201 1166.446,-487.373 1332.811,-301.885 367.531,409.773 l -761.111,561.135 917.867,260.432 2492.867,410.429 -2590.621,12.407 c -1108.814,5.31 -1146.583,261.042 -763.121,1269.623 243.29,639.9 236.032,649.227 -198.899,255.623 -248.27,-224.684 -523.897,-408.514 -612.503,-408.514 -88.605,0 -161.102,803.627 -161.102,1785.836 0,982.21 -94.217,1844.065 -209.371,1915.234 -251.376,155.359 -504.338,-1232.441 -507.986,-2786.906 -1.454,-619.21 -89.791,-1179.695 -196.303,-1245.525 -106.514,-65.829 -661.989,146.323 -1234.387,471.451 -572.397,325.128 -1092.243,539.618 -1155.217,476.644 -62.971,-62.971 291.606,-497.498 787.955,-965.613 L 59587.143,65140 h -853.942 c -1711.032,-419.622 -3634.061,-638.336 -6918.765,-734.006 -7527.31,-269.392 -6572.604,-55.365 -5082.085,-168.124 78.119,-138.129 10778.061,235.163 11441.581,235.163 638.002,0 1333.784,-120.75 1416.55,-203.517 82.767,-82.764 -6.515,-526.239 -198.404,-985.496 -353.496,-846.036 -275.928,-1393.614 159.309,-1124.622 131.021,80.976 358.839,433.739 506.263,783.916 300.776,714.441 265.944,824.277 559.184,-1763.314 87.083,-768.422 158.984,-1112.276 245.777,-1112.588 z M 58665.836,61540 c 205.791,0 374.164,108 374.164,240 0,132 -101.627,240 -225.836,240 -124.21,0 -292.583,-108 -374.164,-240 -81.581,-132 20.046,-240 225.836,-240 z m -19592.809,8304.365 c 52.839,1.234 132.247,170.049 263.555,455.635 182.076,396 342.834,1195.289 357.234,1776.197 16.109,649.836 -89.189,1096.117 -273.689,1159.957 -444.019,153.636 -573.597,-407.696 -489.713,-2121.433 44.262,-904.251 64.125,-1272.189 142.613,-1270.356 z M 112001.15,71620 c -1405.26,0 -4335.59,2893.763 -6128.29,6051.82 -2275.79,4009.073 -2715.84,5515.436 -1689.61,5783.799 497.16,130.011 497.89,140.79 60,890.893 -243.79,417.61 -740.47,972.496 -1103.74,1233.078 -363.27,260.585 -772.07,682.279 -908.44,937.099 -472.8,883.437 578.06,517.004 1596.48,-556.689 1225.41,-1291.91 1811.36,-2208.077 2187.34,-3420 397.97,-1282.788 380.51,-2038.889 -58.26,-2523.725 -318.88,-352.373 -321.32,-501.568 -19.9,-1218.896 946.97,-2253.569 2697.07,-3626.065 3633.11,-2849.221 503.13,417.564 440.3,2272.029 -129.83,3831.842 -554.56,1517.215 -539.6,1440 -278.94,1440 318.03,0 1525.48,-2637.946 1640.21,-3583.428 129.03,-1063.313 -606.15,-2338.374 -1473.83,-2556.148 -334.09,-83.853 -607.44,-226.252 -607.44,-316.442 0,-368.429 1699.72,-1930.818 2528.26,-2323.986 1093.23,-518.772 1639.13,-259.845 1747.28,828.764 86.39,869.419 524.46,783.449 524.46,-102.924 0,-741.653 -790.14,-1545.836 -1518.85,-1545.836 z m -6757.93,8880 c 471.66,0 455.42,826.342 -30.82,1568.443 -373.23,569.626 -1052.4,815.417 -1052.4,380.866 0,-565.683 768.87,-1949.309 1083.22,-1949.309 z m -34527.507,2032.043 v 0 c -599.443,-1.298 -1595.713,334.702 -1595.713,634.916 0,140.016 181.391,132.743 464.223,-18.625 255.322,-136.644 762.922,-248.443 1128,-248.443 485.628,0 592.413,-71.359 397.871,-265.901 -70.918,-70.918 -214.853,-101.561 -394.381,-101.949 z m 37433.117,447.805 c -255.21,3.726 -2592.76,2409.337 -2756.6,2850.457 -139.24,374.892 739.63,-168.08 1506.59,-930.791 871.71,-866.858 1445.94,-1734.757 1266.5,-1914.19 -3.79,-3.789 -9.32,-5.581 -16.49,-5.476 z m -75174.303,1700.961 c 204.388,1.094 972.705,309.752 1828.823,740.886 l 1732.539,872.496 -129.502,1002.911 -9.254,71.668 c -154.941,447.963 -419.106,1349.333 -461.643,1511.992 -84.3,322.372 -634.431,1586.672 -749.289,1967.623 -53.486,26.331 -139.345,76.135 -236.152,113.283 -226.27,86.827 -488.241,-109.869 -722.858,-542.75 -108.67,-200.501 -215.714,-443.101 -295.226,-612.135 -196.653,-801.16 -590.631,-2243.007 -844.555,-3598.883 -142.266,-759.658 -238.701,-1436.595 -159.89,-1515.406 8.004,-8.004 23.903,-11.809 47.007,-11.685 z m 29971.002,1003.332 c -348.046,-0.116 -780.601,234.808 -933.55,387.476 -27.259,27.209 -595.941,1178.485 -637.131,1954.039 -34.733,653.982 469.149,1591.62 630.885,1802.661 53.15,69.353 74.705,48.978 -24.197,-122.232 -18.314,-31.704 -83.008,-189.293 -106.591,-221.569 -29.696,-40.642 -306.509,-594.971 -393.52,-1209.283 -75.411,-532.41 344.131,-1116.958 452.012,-1522.991 215.077,-809.484 856.352,-785.971 1063.157,-799.711 837.437,-55.637 1481.892,186.763 2283.406,616.272 5182.15,2776.975 4815.624,2632.448 6360,2507.867 836.659,-67.493 1791.95,-323.444 2280,-610.883 1100.767,-648.295 2953.02,-1099.732 3721.186,-906.935 856.975,215.088 1552.38,983.039 1594.773,1761.148 l 97.831,94.315 43.356,-148.68 c 162.453,-557.093 -47.584,-850.905 -673.041,-1409.75 -704.475,-629.451 -896.788,-683.152 -2028.234,-566.375 -687.48,70.953 -1831.795,430.244 -2542.918,798.426 -980.205,507.494 -1641.398,672.15 -2733.49,680.742 -1514.486,11.904 -1982.738,-169.919 -5441.203,-2112.824 -1103.881,-620.142 -2247.029,-971.459 -3012.731,-971.713 z m -12513.297,691.283 c -15.275,-3.976 -34.043,5.696 -54.615,18.41 -119.691,73.972 -217.617,290.12 -217.617,480.33 0,157.976 -739.109,2516.861 -735.387,2819.476 0.712,57.864 292.941,-715.88 387.754,-954.272 36.235,-91.107 157.282,-387.267 176.093,-438.197 98.536,-266.787 396.563,-1271.461 481.167,-1561.501 42.916,-147.124 112.359,-792.293 83.847,-851.937 -13.327,-27.879 -72.234,500.446 -121.242,487.691 z m -28913.127,467.857 c 2.601,0.763 25.992,55.239 49.541,135.397 -12.677,-34.609 -22.901,-61.691 -29.699,-78.678 -15.562,-38.889 -21.026,-56.186 -19.949,-56.715 0.03,-0.01 0.07,-0.02 0.107,0 z M 49768.549,88660 c -34.025,163.009 -491.982,1019.798 -651.049,2040 -60.067,385.249 -842.59,2737.483 -830.941,2799.131 12.256,64.863 822.801,-2177.084 926.236,-2424.055 150.835,-360.148 394.602,-1448.743 544.984,-2197.425 151.716,-755.324 208.522,-1165.053 10.77,-217.651 z m -31605.442,282.301 c -6.635,0 -13.264,0.136 -19.865,0.752 -7.405,0.69 14.9,1.657 22.293,0.857 0.93,-0.101 2.285,-0.79 3.615,-1.588 -2.014,-0.01 -4.029,-0.02 -6.043,-0.02 z m -29.353,5.836 c -0.08,0.03 -0.444,0.279 -1.141,0.812 -0.931,0.713 -1.91,1.522 -2.916,2.375 0.163,0.02 0.326,0.03 0.489,0.05 2.122,-1.837 3.772,-3.292 3.568,-3.227 z m 44109.709,367.984 c -119.513,45.861 -139.445,139.117 -194.931,203.427 -110.433,127.996 -188.32,136.155 31.47,420.438 70.779,91.547 3105.924,2425.911 3149.424,2433.281 18.127,3.071 -38.444,-112.549 -269.269,-315.216 -583.201,-512.059 -2396.328,-1782.31 -2894.384,-2335.995 24.316,-24.712 16.567,-86.47 15.257,-55.723 -7.63,179.039 107.206,-93.75 143.342,-128.919 66.835,-87.835 63.047,-233.643 19.091,-221.293 z m 14566.769,3025.529 c -207.512,158.397 -267.682,-38.42 -404.124,-226.381 -74.78,-103.017 -253.361,-416.769 -295.619,-534.779 -19.221,-53.678 -59.474,-104.865 -146.867,-32.874 -52.024,42.855 58.434,386.426 202.95,642.948 60.134,106.74 188.46,252.125 108.67,393.331 -122.695,217.138 -1160.822,617.784 -1360.908,712.603 -540.891,256.323 -1493.489,379.469 -2249.41,484.347 -180.529,25.047 -979.044,182.118 -1048.183,-50.938 -43.947,-148.137 45.246,-717.383 -126.42,-813.741 -32.217,-18.084 11.102,4.694 -64.61,7.984 -254.924,11.076 -27.684,745.826 -4.241,837.777 40.601,91.818 -85.802,69.094 -213.129,87.251 -449.275,65.458 -1161.718,2.404 -1349.363,-21.332 -777.549,-98.357 -536.399,-82.237 -1350.74,-214.832 -597.877,-45.601 -1169.134,-274.953 -1769.329,-347.386 -268.659,27.177 2579.648,595.942 2684.314,609.757 1415.393,186.819 4289.629,45.672 5567.488,-434.035 1407.448,-528.356 3751.743,-2055.451 3900.074,-2516.477 6.359,-19.764 380.152,-794.475 487.78,-1120.532 51.906,-157.248 56.727,-732.426 16.609,-777.483 -26.774,-30.07 -125.242,86.704 -154.152,225.7 -5.858,28.16 50.559,214.53 35.99,366.085 -8.154,84.813 -245.039,808.705 -535.993,1313.313 -581.555,391.039 -1346.3,1208.923 -1930.787,1409.694 z m -11398.438,-615.004 c -45.294,-3.054 -134.167,19.497 -240.513,118.165 -232.14,215.378 -244.231,342.865 -44.722,471.515 838.288,660.284 1776.043,1090.312 1977.961,1042.092 -77.976,-52.392 -299.699,-121.895 -487.164,-219.025 -450.402,-233.366 -1019.43,-562.938 -1209.731,-740.317 -58.527,-57.213 -215.463,-150.326 -187.823,-243.686 38.101,-128.695 161.122,-278.8 176.396,-311.775 6.892,-14.879 37.047,-51.892 40.865,-79.317 3.11,-22.336 -18.504,-37.196 -25.269,-37.652 z m -16588.274,802.362 352.449,-1441.825 c 23.117,-94.569 -672.82,1419.772 -890.729,2072.817 -122.602,367.423 -2186.292,8277.46 -2149.367,8381.72 10.457,29.53 -27.088,538.94 285.99,-548.87 647.731,-2250.582 1914.657,-7052.85 2033.424,-7052.85 236.676,0 626.179,216.425 865.565,480.941 559.73,618.494 3353.127,1968.051 7365.214,3976.294 1902.697,952.391 2490.742,1110.931 2999.222,1388.756 235.358,128.596 504.77,352.039 612.297,574.219 138.823,286.86 2.82,1023.78 -312.437,2177.3 l -731.195,2675.43 152.226,-602.27 -661.943,-316.56 c -935.86,-447.55 -1893.817,-834.68 -5691.976,-2308.43 -2208.542,-856.96 -5797.467,-1551.56 -6541.508,-1266.04 -224.786,86.26 -414.468,607.39 -507.746,1394.98 -147.646,1246.64 -140.273,1264.88 872.133,2156.03 1383.127,1217.48 2221.428,2863.23 2561.818,5029.35 272.477,1733.95 256.829,1877.06 -426.449,3900 l -709.307,2100 3629.401,-12.86 3629.398,-12.86 -838.215,-647.15 c -2571.91,-1985.64 -4029.823,-3992.44 -4525.226,-6228.91 -194.937,-880.04 -153.757,-1129.73 296.867,-1800 788.323,-1172.59 1700.522,-1389.62 5546.035,-1319.49 l 3214.492,-65.79 592.074,-1560.45 c 365.368,-962.95 398.897,-1225.5 492.746,-1852.5 93.849,-627 205.799,-1546.59 313.59,-1546.59 210.602,0 1722.543,756.92 3344.281,1490.03 1910.807,791.21 3958.372,1647.25 5828.021,2053.95 396.435,93.69 1567.257,210.76 2353.152,247.42 1956.014,122.26 2906.345,-529.5 4671.064,-1128.45 1555.975,-528.1 2950.115,-1169.74 3886.665,-1373.67 1322.273,-476.5 1466.441,-436.69 1606.786,-436.69 331.291,0 786.527,1335.91 1310.195,3936.06 232.846,1156.13 1246.537,3935.13 1297.784,3883.88 2.022,-2.02 -112.934,-327.92 -112.034,-332.34 4.483,-22.04 -20.936,-35.05 -42.088,-113.15 -120.535,-445.03 -594.279,-1774.26 -912.344,-3168.51 -340.993,-1494.76 -593.928,-2979.44 -720.493,-3312.33 -122.378,-321.88 -548.761,-1006.3 -461.386,-1132.05 84.099,-121.04 1636.386,-714.64 3207.599,-1260.161 1637.529,-568.542 3298.094,-1451.11 3487.758,-1493.605 394.496,-88.388 2848.666,-1506.454 2931.694,-1640.796 83.028,-134.342 -4951.981,2306.912 -5852.218,2659.438 -900.24,352.526 -2775.264,1044.564 -4166.719,1537.844 -1391.458,493.29 -3992.277,1441.6 -5779.6,2107.35 -3372.778,1256.31 -3415.79,1262.09 -6420.046,863.38 -1107.009,-146.91 -4136.558,-1242.21 -6750.434,-2440.55 -858,-393.35 -2370,-1067.03 -3360,-1497.063 -990,-430.034 -2826,-1322.918 -4080,-1984.186 -6606.05,-3483.542 -7314.003,-3989.192 -7097.916,-5069.631 15.17,-75.851 23.316,-122.262 26.872,-148.874 3.472,-25.978 -2.117,-261.214 -5.129,-258.425 -8.492,7.867 -29.076,322.612 -20.307,286.737 z m -34850.688,-59.104 c 7.224,-30.411 1.461,-99.862 -16.85,-88.545 -179.495,110.936 -509.668,2762.253 -396.562,4191.311 l 165.863,2095.637 -1942.855,133.168 c -1993.2082,136.617 -3458.0537,730.711 -4373.4866,1773.655 -845.1915,962.94 -1648.7498,2847.74 -1621.3418,3802.96 l -39.2207,808.89 c 0.4113,1.11 0.679,2.44 0.7305,4 0.076,2.3 -0.075,4.65 -0.7168,6.87 -0.1114,0.38 -0.2458,0.76 -0.3887,1.13 -10e-5,0.43 4e-4,0.86 0,1.29 -7e-4,0.55 0,1.1 0,1.65 0,0.55 -10e-5,1.11 0,1.66 v 1.66 4.48 c 0.017,2.81 -0.587,5.57 -1.043,8.33 0.067,0.31 0.1283,0.63 0.1778,0.97 0.3287,2.24 0.512,4.51 0.457,6.77 -0.011,0.45 -0.031,0.91 -0.084,1.36 -0.132,1.12 -0.4402,1.62 -0.094,0.99 -0.098,3.23 -1.073,6.34 -1.6348,9.5 -0.1703,1.53 -0.5809,3.03 -0.7051,4.56 -0.1773,0.56 0.092,1.11 0.059,1.67 -0.05,0.84 -0.1564,1.69 -0.2344,2.53 -0.1016,0.51 -0.2386,1.01 -0.3066,1.51 -0.102,0.77 0.05,0.93 -0.014,1.66 -0.1747,2 -0.5714,3.93 -0.9101,5.9 -0.7356,3.81 -0.8702,7.7 -1.3203,11.54 -0.1874,1.6 -0.418,3.2 -0.627,4.8 -0.1235,0.77 -0.2338,1.54 -0.3555,2.31 h 0.1563 c 0.7787,2.12 0.5416,4.85 0.4726,7.07 -0.1246,4.02 -0.033,-0.72 -0.1054,4.15 0.017,4.55 0.045,9.1 0.035,13.65 0.01,3.9 0.1041,7.78 -0.3047,11.65 -0.186,1.77 -0.4812,3.52 -0.7128,5.28 -0.7465,6.33 -1.202,12.7 -1.6407,19.07 -0.074,1.16 -0.1466,2.32 -0.2226,3.47 -0.1103,1.68 -0.2241,3.35 -0.3379,5.02 -0.074,1.08 -0.085,2.17 -0.2266,3.25 -0.7431,5.67 -0.8213,4.71 -1.7695,9.51 -0.3979,2.01 -0.7517,4.03 -1.127,6.04 -0.7352,4.24 -1.5463,8.47 -2.4043,12.69 -0.015,0.82 -0.023,1.64 -0.037,2.46 -0.025,1.24 -0.058,2.49 -0.072,3.74 -0.032,2.96 0.057,5.92 -0.02,8.88 -0.4526,17.37 -0.037,-2.72 -0.5215,10.23 -0.076,2.05 -0.081,4.09 -0.121,6.14 -0.039,6.08 0.1332,12.16 0.1582,18.24 6e-4,1.12 0.042,2.24 0,3.36 -0.06,1.68 -0.2018,3.35 -0.3028,5.03 -0.1024,1.06 -0.2466,2.13 -0.3086,3.2 -0.4137,7.14 0.056,1.45 -0.1191,7.04 -0.3454,11.03 -0.034,-1.2 -0.4356,6.09 -0.058,1.06 -0.051,2.11 -0.076,3.16 0,2.85 -0.01,2.41 0.053,5.58 0.013,0.64 0.1144,1.29 0.049,1.93 -0.049,0.48 -0.1214,0.95 -0.1933,1.42 0.025,0.3 0.064,0.73 0.072,0.82 0.4783,3.94 1.1158,7.87 1.6426,11.81 0.07,0.52 0.175,1.04 0.211,1.56 0.5046,7.38 -0.1183,-0.51 0.029,4.7 0.075,2.65 0.2499,2.24 0.3964,4.73 0.076,1.3 0.1,2.6 0.1485,3.91 -0.041,7.61 -0.1274,15.22 -0.1094,22.83 0,1.13 0.1163,2.26 0.014,3.38 -0.4337,4.75 -0.8509,5.96 -1.7871,10.16 -0.2093,0.94 -0.4014,1.88 -0.6055,2.81 6.4838,93.42 13.1104,186.84 19.5664,280.25 2.7182,39.22 4.7902,78.48 8.1543,117.65 4.3909,51.13 9.7242,102.17 15.1074,153.2 3.3347,31.61 8.5911,63.03 11.043,94.72 3.9373,50.89 6.1674,85.17 7.5664,112.64 l 222.2051,1982.48 c 47.1257,420.45 250.8223,1501.11 575.5781,2395.8 477.3188,1315 528.5463,1661.36 267.3418,1807.54 -177.7168,99.45 -395.185,587.35 -483.2617,1084.2 -88.0769,496.86 -215.6562,1092.38 -283.5137,1323.38 -80.4402,273.84 7.5324,420 252.793,420 268.1976,0 376.1758,-235.48 376.1758,-820.37 0,-1019.86 204.5848,-1579.63 577.3281,-1579.63 345.9432,0 2302.6719,1843.06 2302.6719,2168.91 0,127.1 273.8057,231.09 608.439,231.09 539.644,0 578.576,-55.81 344.301,-493.56 -145.279,-271.45 -446.076,-557.87 -668.4412,-636.48 C 9241.0521,113942.57 8640,113339.04 8640,112920.53 c 0,-211.79 -206.2887,-513.9 -458.418,-671.35 -252.1294,-157.46 -535.8604,-638.89 -630.5156,-1069.86 -94.6553,-430.96 -252.4621,-949.11 -350.6816,-1151.44 -98.2198,-202.34 -401.7865,-853.88 -674.5938,-1447.88 l -680.914,-2958.48 144.164,-1121.52 c 416.924,-3243.43 2828.4563,-5167.512 6012.867,-5456.266 1184.68,-107.421 1423.915,-52.68 1953.153,446.924 331.71,313.14 908.686,1136.342 1282.168,1829.342 227.36,421.87 751.996,1412.83 1153.164,2123.68 59.447,137.98 166.745,317.5 320.2,538.86 98.045,157.89 167.08,253.64 190.451,253.64 5.221,0 9.261,-1.53 13.8,-3.48 549.476,637.37 2140.007,2405.73 3344.963,3694.34 389.4,491.83 1921.493,1927.07 2172.78,2244.35 651.694,829.31 1601.915,1091.02 2582.251,1320.45 508.445,118.99 1018.529,177.6 1512.95,411.67 752.335,821.5 2822.779,2663.64 3772.212,2671.22 363,2.9 660,108.73 660,235.18 0,126.44 837,265.05 1860,308.01 1023,42.97 2076,25.82 2340,-38.1 264,-63.92 696,-86.1 960,-49.28 264,36.83 1938,85.53 3720,108.21 2738.335,34.86 3240,-14.49 3240,-318.75 0,-175.07 -3851.447,233.45 -4494.476,-24.02 -438.296,-175.49 -2400.709,668.09 3104.806,-1414.64 843.623,-319.14 -936.865,246.13 -2852.392,657.84 -1624.638,349.18 -3421.562,523.79 -3089.69,422.87 656.977,-199.77 4603.743,-1997.86 4307.42,-2163.69 -225.6,-126.26 -575.553,175.18 -1138.25,341.13 -524.505,154.68 -2328.859,1557.85 -4477.418,1565.98 -3834.888,14.51 -3842.158,13.51 -5460,-752.86 -1764.147,-566.17 -2478.093,-2490.13 -2920,-3707.68 -75.309,-905.03 -164.396,-1925.8 15.936,-2756.15 52.688,-258.13 72.905,-374.18 164.449,-691.64 147.116,-510.17 361.438,-871.14 643.818,-1211.48 392.82,-473.45 1917.884,-1051.3 2260.109,-1224.01 292.981,-147.86 118.266,15.54 -40.946,235.17 -109.719,151.35 -166.13,342.55 -243.366,423.75 -556.664,585.27 -143.814,5143.63 503.18,5555.75 846.775,539.36 2459.716,-386.13 2587.713,-1352.66 81.173,-612.97 694.971,-1700.15 249.169,-1461.56 -137.625,73.66 -396.102,1034.25 -616.129,1505.4 -92.39,223.75 -175.216,594.79 -439.267,800.66 -525.82,409.95 -1362.527,535.61 -1570.113,133.83 -76.615,-199.66 -365.853,-868.32 -505.246,-1990.07 -269.916,-2172.12 -110.172,-3751.58 1013.047,-4146.28 307.977,-108.23 811.004,256.81 1249.453,259.34 408.926,2.36 1089.294,-14.19 1702.019,-40.84 l -311.264,58.58 831.036,-84.79 c 408.988,-24.03 722.257,-52.3 794.267,-81.04 l 572.135,-58.38 c 530.504,-54.13 1554,-284.73 2280,-466.75 l 1034.734,-295.16 c 645.229,-25.01 1705.314,-53.19 3165.266,-36.6 1585.861,18.02 3150,161.89 3480,184.43 443.527,30.29 506.117,-12.93 240,-165.71 -316.403,-181.65 -2043.154,-308.4 -3675.773,-307.15 -567.121,0.43 -1693.664,8.2 -2169.913,86.05 -164.7,26.92 -317.828,51.35 -459.474,73.5 l 41.037,-11.71 -1215.566,121.96 c -668.563,67.08 -2030.441,418.53 -2615.877,608.17 l -1030.715,193.97 c -528.233,-40.6 -1480.536,-63.51 -1898.094,-63.51 -607.409,0 -1396.179,-110.94 -1752.826,-246.54 -208.774,-79.38 -360.671,-122.78 -484.721,-123.16 -199.999,-0.61 -327.616,110.61 -504.512,363.16 -187.433,267.6 590.316,-263.46 414.44,-263.46 -746.601,-4.68 -1969.557,885.77 -2871.877,1524.53 -987.284,610.89 -1805.823,737.06 -2544.519,1668.09 -335.668,423.07 -1016.607,1595.93 -843.376,2382.8 134.745,612.05 405.865,1076.05 725.93,1515.11 148.005,203.03 404.951,435.5 808.065,535.95 162.758,40.56 357.389,53.12 604.321,134.54 258.013,85.06 360.569,-243.96 579.382,-84.51 -130.176,-171.29 -3.469,-77.37 55.676,242.54 11.636,62.94 117.088,265.67 200.545,490.8 l -833.811,-131.71 -522.944,-138.08 c -199.511,-52.68 -912.314,-217.64 -1585.143,-692.14 -812.817,-573.23 -1601.75,-1483.34 -1805.816,-1696.57 -706.384,-738.11 -1215.863,-1257.78 -1570.334,-1606.13 -1374.461,-1641.71 -3180.314,-3733.24 -3346.912,-3912.06 -44.304,-47.55 -85.657,-89.71 -124.035,-126.69 -379.752,-978.82 -1128.42,-2541.87 -1640.441,-3352.96 -806.767,-1278.002 -1129.747,-2522.041 -1131.379,-4357.674 -0.823,-931.774 -75.921,-2659.594 51.494,-3195.932 z m 80047.236,3077.34 c -77.211,0.75 -2149.222,1170.619 -2340.068,1272.756 -264,141.288 -2353.833,1159.417 -2353.833,1225.417 0,66 2089.833,-844.129 2353.833,-985.417 111.846,-60.219 293.229,-179.926 623.14,-369.349 501.648,-288.028 1211.4,-683.939 1475.614,-856.788 607.706,-397.563 254.038,-289.722 241.314,-286.619 z M 5684.4004,104969.91 c 0.072,0.38 0.1471,0.76 0.2187,1.13 2.1834,1.12 4.4682,2.07 6.795,2.95 -0.8764,-1.13 -1.7602,-2.26 -2.6289,-3.4 -1.0041,-0.1 -2.923,-0.45 -4.3848,-0.68 z m 26068.0766,-1156.27 c -52.411,-77.04 475.023,1480.96 475.023,2277.8 0,832.63 -108.153,1838.93 -11.174,1686.22 610.704,-1925.42 80.283,-3246.37 -463.849,-3964.02 -91.36,-120.49 139.475,205.02 0,0 z m 53085.8,4779.95 1414.532,1077.11 c 1647.313,1254.36 1864.342,2283.55 2011.63,4118.45 l 121.278,1510.85 h 10695.14 c 5882.333,0 10733.963,125.17 10608.563,18.89 -1414.08,-1198.5 -5377.16,-3390.3 -8289.42,-4432.91 -3439.471,-1231.35 -7980.967,-1970.27 -13654.721,-2221.67 z m -29786.886,2850.03 c -261.128,0.54 -383.656,44.11 -287.461,140.31 1637.447,-125.98 7156.719,1769.38 9891.07,3306.26 1001.054,526.71 1489.034,664.85 973,207.93 -411.062,-363.97 -5949.371,-2620.74 -7693.873,-3135.13 -1062.957,-313.42 -2308.257,-520.55 -2882.736,-519.37 z M 22817.117,110375 c -59.15,0 -610.779,-679.45 -384.53,-203.61 193.543,407.06 1150.781,1927.76 1309.26,2458.66 304.214,1019.1 260.778,2081.21 259.493,2369.95 -0.734,165 200.858,300 447.986,300 217.11,0 -119.897,-2157.91 -216.347,-2626.64 -54.482,-264.77 103.977,1218.07 146.511,952.08 157.667,-986.01 -1171.337,-3250.44 -1562.373,-3250.44 z m -1800.82,4094.34 c -648.181,-1.08 -1159.789,181.14 -1280.658,543.74 -69.108,207.33 459.15,286.4 1904.361,285.44 1818.272,-1.34 1944.028,-30.69 1384.004,-322.94 -646.373,-337.31 -1389.214,-505.22 -2007.707,-506.24 z"/>
    <path style="fill:#ffffff;stroke:#000000;stroke-width:1px;stroke-linecap:butt;stroke-linejoin:miter;stroke-opacity:1" d="m 23655.51,108914.91 c 179.521,568.33 653.39,1315.87 839.673,1488.68 259.249,240.49 830.972,340.85 1015.796,362.04 262.317,30.08 669.514,-41.14 705.004,-147.62 6.443,-155.91 -324.764,-882.91 -321.567,-1043.57 13.181,-662.29 -6.852,-910.51 -22.518,-1125.64 9.448,-189.71 -17.021,-553.56 11.024,-911.17 42.164,-537.63 113.283,-1097.26 143.348,-1205.8 71.402,-257.78 62.407,-615.58 315.074,-910.85 -860.009,-51.07 -2154.55,990.78 -2456.006,1939.17 -165.335,384.45 -410.902,929.53 -229.828,1554.76 z" id="path2895" xmlns:sodipodi="http://sodipodi.sourceforge.net/DTD/sodipodi-0.dtd" sodipodi:nodetypes="csscscssccc"/>
    <path style="fill:#ff0000;fill-opacity:0;stroke:#000000;stroke-width:100" d="m 98585.152,115187.11 -10162.152,-25.47 -71.001,-1024.53 c -185.245,-2673.05 -586.682,-3498.35 -2354.301,-4840.09 l -901.686,-684.44 725.645,-32.5 c 399.105,-17.87 1603.146,17.65 2675.646,78.93 5880.553,336.02 10208.844,1121.9 13599.997,2469.33 2113.75,839.87 5472.18,2616.23 6949.68,3675.88 459.91,329.84 478.47,358.36 233.18,358.36 -146.57,0 -326.43,11.25 -399.68,25 -73.25,13.75 -4706.14,13.54 -10295.328,-0.47 z" id="path2897"/>
    <path style="fill:#ff0000;fill-opacity:0;stroke:#000000;stroke-width:100" d="m 98589.278,115187.11 -10158.025,-25.47 -118.316,-1324.53 c -226.664,-2537.48 -590.59,-3222.99 -2456.657,-4627.51 -417.437,-314.19 -758.977,-595.44 -758.977,-624.99 0,-88.55 3924.461,67.35 5750,228.41 6672.989,588.74 10557.117,1654.12 15195.407,4167.94 1206.14,653.69 3498.83,2077.15 3433.11,2131.51 -103.51,85.6 -1820.89,97.37 -10886.542,74.64 z" id="path2899"/>
    <path style="fill:#ff0000;fill-opacity:0;stroke:#000000;stroke-width:100" d="m 97031.234,115187.03 -8616.069,-25.56 -69.227,-874.44 c -220.555,-2785.97 -603.225,-3575.36 -2421.492,-4995.17 -454.929,-355.23 -827.143,-671.8 -827.143,-703.48 0,-93.02 3998.164,60.79 5900,226.97 4492.8,392.59 8149.42,1141.87 11013.147,2256.72 2064.96,803.89 4697.45,2170.3 6686.85,3470.85 842.33,550.66 847.23,556.27 542.65,621.43 -169.04,36.16 -1046.54,61.81 -1950,56.99 -903.46,-4.82 -5519.88,-20.26 -10258.716,-34.31 z" id="path2901"/>
    <path style="fill:#ff0000;fill-opacity:0;stroke:#000000;stroke-width:100" d="m 94080.174,115187.6 -5667.128,-26.66 -64.391,-674.18 c -279.026,-2921.45 -549.166,-3620.43 -1804.768,-4669.85 -331.879,-277.38 -804.379,-675.75 -1050,-885.27 l -446.584,-380.95 2200,55 c 5553.531,138.84 10672.966,952.98 14290.017,2272.52 2079.04,758.46 5339.67,2429.48 7259.98,3720.61 698.99,469.96 733,509.01 500,574.04 -242.18,67.6 -3343.75,70.61 -15217.126,14.74 z" id="path2903"/>
    <path style="fill:#ff0000;fill-opacity:0;stroke:#000000;stroke-width:100" d="m 91529.322,115187.64 -3117.981,-27.89 -62.14,-573.58 c -199.902,-1845.23 -365.712,-2692.87 -639.191,-3267.62 -337.387,-709.07 -658.502,-1066.37 -1807.547,-2011.25 l -844.84,-694.72 1044.84,-32.4 c 3111.123,-96.47 9038.323,552.14 12294.84,1345.43 3003.917,731.75 6265.417,2119.66 9299.467,3957.32 1524.42,923.3 1860.13,1180.4 1685.68,1290.95 -122.1,77.37 -9899.525,84.91 -17853.128,13.76 z" id="path2905"/>
  </g>
</svg>